<svg width="64" height="64" viewBox="0 0 64 64" xmlns="http://www.w3.org/2000/svg">
  <!-- Упрощенная версия логотипа для иконок -->
  <defs>
    <!-- Градиент для фона -->
    <linearGradient id="iconGradient" x1="0%" y1="0%" x2="100%" y2="100%">
      <stop offset="0%" style="stop-color:#2196F3;stop-opacity:1" />
      <stop offset="100%" style="stop-color:#1976D2;stop-opacity:1" />
    </linearGradient>
    
    <!-- Градиент для серверов -->
    <linearGradient id="serverIconGradient" x1="0%" y1="0%" x2="100%" y2="100%">
      <stop offset="0%" style="stop-color:#4CAF50;stop-opacity:1" />
      <stop offset="100%" style="stop-color:#45a049;stop-opacity:1" />
    </linearGradient>
  </defs>
  
  <!-- Фоновый круг -->
  <circle cx="32" cy="32" r="30" fill="url(#iconGradient)"/>
  
  <!-- Центральный сервер -->
  <rect x="24" y="20" width="16" height="24" rx="3" fill="url(#serverIconGradient)"/>
  
  <!-- Экран сервера -->
  <rect x="26" y="24" width="12" height="8" rx="1" fill="#ffffff" opacity="0.9"/>
  
  <!-- Статусные индикаторы -->
  <circle cx="28" cy="28" r="1.5" fill="#4CAF50"/>
  <circle cx="32" cy="28" r="1.5" fill="#4CAF50"/>
  <circle cx="36" cy="28" r="1.5" fill="#4CAF50"/>
  
  <!-- Сетевые соединения -->
  <line x1="16" y1="32" x2="22" y2="32" stroke="#4CAF50" stroke-width="2" stroke-linecap="round"/>
  <line x1="42" y1="32" x2="48" y2="32" stroke="#4CAF50" stroke-width="2" stroke-linecap="round"/>
  <line x1="32" y1="10" x2="32" y2="16" stroke="#4CAF50" stroke-width="2" stroke-linecap="round"/>
  <line x1="32" y1="48" x2="32" y2="54" stroke="#4CAF50" stroke-width="2" stroke-linecap="round"/>
  
  <!-- Сетевые узлы -->
  <circle cx="16" cy="32" r="3" fill="#4CAF50"/>
  <circle cx="48" cy="32" r="3" fill="#4CAF50"/>
  <circle cx="32" cy="10" r="3" fill="#4CAF50"/>
  <circle cx="32" cy="54" r="3" fill="#4CAF50"/>
  
  <!-- Центральный узел -->
  <circle cx="32" cy="32" r="4" fill="#4CAF50"/>
  
  <!-- Анимированная активность -->
  <circle cx="32" cy="32" r="2" fill="#ffffff" opacity="0.8">
    <animate attributeName="r" values="2;4;2" dur="2s" repeatCount="indefinite"/>
    <animate attributeName="opacity" values="0.8;0.3;0.8" dur="2s" repeatCount="indefinite"/>
  </circle>
</svg>
